<mxfile host="app.diagrams.net" modified="2023-04-06T18:42:47.546Z" agent="Mozilla/5.0 (Windows NT 10.0; Win64; x64) AppleWebKit/537.36 (KHTML, like Gecko) Chrome/112.0.0.0 Safari/537.36" etag="xMLkRg_VVset5T2EXyfK" version="21.1.4" type="device">
  <diagram name="Page-1" id="-HlSdgbAohj0zG-4OBJt">
    <mxGraphModel dx="1828" dy="439" grid="1" gridSize="10" guides="1" tooltips="1" connect="1" arrows="1" fold="1" page="1" pageScale="1" pageWidth="850" pageHeight="1100" math="0" shadow="0">
      <root>
        <mxCell id="0" />
        <mxCell id="1" parent="0" />
        <mxCell id="SGp8c-bpY-FQQqB5Yip6-1" value="ioc.core.ts" style="swimlane;whiteSpace=wrap;html=1;rounded=1;dashed=1;fillColor=#dae8fc;strokeColor=#6c8ebf;" parent="1" vertex="1">
          <mxGeometry x="-100" y="130" width="120" height="510" as="geometry" />
        </mxCell>
        <mxCell id="SGp8c-bpY-FQQqB5Yip6-2" style="edgeStyle=orthogonalEdgeStyle;rounded=0;orthogonalLoop=1;jettySize=auto;html=1;fillColor=#d5e8d4;strokeColor=#82b366;" parent="1" source="SGp8c-bpY-FQQqB5Yip6-4" edge="1">
          <mxGeometry relative="1" as="geometry">
            <mxPoint x="20" y="210" as="targetPoint" />
          </mxGeometry>
        </mxCell>
        <mxCell id="SGp8c-bpY-FQQqB5Yip6-3" value="bind&lt;br&gt;Symbol(&#39;ExpressFrameworkAdapter&#39;)" style="edgeLabel;html=1;align=center;verticalAlign=middle;resizable=0;points=[];labelBackgroundColor=#CDA2BE;" parent="SGp8c-bpY-FQQqB5Yip6-2" vertex="1" connectable="0">
          <mxGeometry x="-0.0658" relative="1" as="geometry">
            <mxPoint x="-15" as="offset" />
          </mxGeometry>
        </mxCell>
        <mxCell id="SGp8c-bpY-FQQqB5Yip6-4" value="exress.framework.adapter.ts" style="rounded=1;whiteSpace=wrap;html=1;fillColor=#d5e8d4;strokeColor=#82b366;" parent="1" vertex="1">
          <mxGeometry x="330" y="190" width="230" height="40" as="geometry" />
        </mxCell>
        <mxCell id="SGp8c-bpY-FQQqB5Yip6-5" style="edgeStyle=orthogonalEdgeStyle;rounded=0;orthogonalLoop=1;jettySize=auto;html=1;exitX=0;exitY=0.5;exitDx=0;exitDy=0;fillColor=#d5e8d4;strokeColor=#82b366;" parent="1" source="SGp8c-bpY-FQQqB5Yip6-6" edge="1">
          <mxGeometry relative="1" as="geometry">
            <mxPoint x="20" y="310" as="targetPoint" />
          </mxGeometry>
        </mxCell>
        <mxCell id="SGp8c-bpY-FQQqB5Yip6-6" value="fastify.framework.adapter.ts" style="rounded=1;whiteSpace=wrap;html=1;fillColor=#d5e8d4;strokeColor=#82b366;" parent="1" vertex="1">
          <mxGeometry x="330" y="290" width="230" height="40" as="geometry" />
        </mxCell>
        <mxCell id="SGp8c-bpY-FQQqB5Yip6-7" style="edgeStyle=orthogonalEdgeStyle;rounded=0;orthogonalLoop=1;jettySize=auto;html=1;fillColor=#d5e8d4;strokeColor=#82b366;" parent="1" source="SGp8c-bpY-FQQqB5Yip6-9" edge="1">
          <mxGeometry relative="1" as="geometry">
            <mxPoint x="20" y="400" as="targetPoint" />
            <Array as="points">
              <mxPoint x="220" y="400" />
              <mxPoint x="220" y="400" />
            </Array>
          </mxGeometry>
        </mxCell>
        <mxCell id="SGp8c-bpY-FQQqB5Yip6-8" value="bind&lt;br&gt;Symbol(&#39;{FrameworkName}FrameworkAdapter&#39;)" style="edgeLabel;html=1;align=center;verticalAlign=middle;resizable=0;points=[];labelBackgroundColor=#CDA2BE;" parent="SGp8c-bpY-FQQqB5Yip6-7" vertex="1" connectable="0">
          <mxGeometry x="0.0832" y="-2" relative="1" as="geometry">
            <mxPoint x="14" as="offset" />
          </mxGeometry>
        </mxCell>
        <mxCell id="SGp8c-bpY-FQQqB5Yip6-9" value="{framework-name}.framework.adapter.ts" style="rounded=1;whiteSpace=wrap;html=1;fillColor=#d5e8d4;strokeColor=#82b366;" parent="1" vertex="1">
          <mxGeometry x="330" y="380" width="230" height="40" as="geometry" />
        </mxCell>
        <mxCell id="SGp8c-bpY-FQQqB5Yip6-10" value="bind&lt;br&gt;Symbol(&#39;FastifyFrameworkAdapter&#39;)" style="edgeLabel;html=1;align=center;verticalAlign=middle;resizable=0;points=[];labelBackgroundColor=#CDA2BE;" parent="1" vertex="1" connectable="0">
          <mxGeometry x="169.99714285714265" y="230" as="geometry">
            <mxPoint x="3" y="82" as="offset" />
          </mxGeometry>
        </mxCell>
        <mxCell id="SGp8c-bpY-FQQqB5Yip6-11" style="edgeStyle=orthogonalEdgeStyle;rounded=1;orthogonalLoop=1;jettySize=auto;html=1;entryX=1;entryY=0.5;entryDx=0;entryDy=0;fillColor=#d5e8d4;strokeColor=#82b366;" parent="1" source="SGp8c-bpY-FQQqB5Yip6-15" target="SGp8c-bpY-FQQqB5Yip6-4" edge="1">
          <mxGeometry relative="1" as="geometry">
            <Array as="points">
              <mxPoint x="590" y="310" />
              <mxPoint x="590" y="210" />
            </Array>
          </mxGeometry>
        </mxCell>
        <mxCell id="SGp8c-bpY-FQQqB5Yip6-12" style="edgeStyle=orthogonalEdgeStyle;rounded=1;orthogonalLoop=1;jettySize=auto;html=1;entryX=1;entryY=0.5;entryDx=0;entryDy=0;fillColor=#d5e8d4;strokeColor=#82b366;" parent="1" source="SGp8c-bpY-FQQqB5Yip6-15" target="SGp8c-bpY-FQQqB5Yip6-6" edge="1">
          <mxGeometry relative="1" as="geometry" />
        </mxCell>
        <mxCell id="SGp8c-bpY-FQQqB5Yip6-13" style="edgeStyle=orthogonalEdgeStyle;rounded=1;orthogonalLoop=1;jettySize=auto;html=1;entryX=1;entryY=0.5;entryDx=0;entryDy=0;fillColor=#d5e8d4;strokeColor=#82b366;" parent="1" source="SGp8c-bpY-FQQqB5Yip6-15" target="SGp8c-bpY-FQQqB5Yip6-9" edge="1">
          <mxGeometry relative="1" as="geometry">
            <Array as="points">
              <mxPoint x="590" y="310" />
              <mxPoint x="590" y="400" />
            </Array>
          </mxGeometry>
        </mxCell>
        <mxCell id="SGp8c-bpY-FQQqB5Yip6-14" value="extends" style="edgeLabel;html=1;align=center;verticalAlign=middle;resizable=0;points=[];labelBackgroundColor=#CDA2BE;" parent="SGp8c-bpY-FQQqB5Yip6-13" vertex="1" connectable="0">
          <mxGeometry x="-0.6356" relative="1" as="geometry">
            <mxPoint x="-5" as="offset" />
          </mxGeometry>
        </mxCell>
        <mxCell id="SGp8c-bpY-FQQqB5Yip6-15" value="abstract.framework.adapter.ts" style="rounded=1;whiteSpace=wrap;html=1;fillColor=#dae8fc;strokeColor=#6c8ebf;" parent="1" vertex="1">
          <mxGeometry x="676.33" y="290" width="190" height="40" as="geometry" />
        </mxCell>
        <mxCell id="SGp8c-bpY-FQQqB5Yip6-16" value="methods and properties" style="swimlane;whiteSpace=wrap;html=1;fillColor=#f8cecc;strokeColor=#b85450;rounded=1;" parent="1" vertex="1">
          <mxGeometry x="739.33" y="350" width="297" height="340" as="geometry" />
        </mxCell>
        <mxCell id="SGp8c-bpY-FQQqB5Yip6-17" value="protect abstract frameworkInstance" style="rounded=1;whiteSpace=wrap;html=1;fillColor=#fff2cc;strokeColor=#d6b656;" parent="SGp8c-bpY-FQQqB5Yip6-16" vertex="1">
          <mxGeometry x="10" y="40" width="270" height="40" as="geometry" />
        </mxCell>
        <mxCell id="SGp8c-bpY-FQQqB5Yip6-18" value="protect abstract _loggerService: ILoggerService" style="rounded=1;whiteSpace=wrap;html=1;fillColor=#fff2cc;strokeColor=#d6b656;" parent="SGp8c-bpY-FQQqB5Yip6-16" vertex="1">
          <mxGeometry x="10" y="100" width="270" height="40" as="geometry" />
        </mxCell>
        <mxCell id="SGp8c-bpY-FQQqB5Yip6-19" style="edgeStyle=orthogonalEdgeStyle;rounded=1;orthogonalLoop=1;jettySize=auto;html=1;fillColor=#fff2cc;strokeColor=#d6b656;dashed=1;exitX=0;exitY=0.5;exitDx=0;exitDy=0;" parent="SGp8c-bpY-FQQqB5Yip6-16" source="SGp8c-bpY-FQQqB5Yip6-20" edge="1">
          <mxGeometry relative="1" as="geometry">
            <mxPoint x="-40" y="-20" as="targetPoint" />
            <Array as="points">
              <mxPoint x="-40" y="180" />
            </Array>
          </mxGeometry>
        </mxCell>
        <mxCell id="SGp8c-bpY-FQQqB5Yip6-20" value="protect abstract _BASE_API_URL" style="rounded=1;whiteSpace=wrap;html=1;fillColor=#fff2cc;strokeColor=#d6b656;" parent="SGp8c-bpY-FQQqB5Yip6-16" vertex="1">
          <mxGeometry x="10" y="160" width="270" height="40" as="geometry" />
        </mxCell>
        <mxCell id="SGp8c-bpY-FQQqB5Yip6-21" value="protect abstract loadSchema(): Promise&amp;lt;void&amp;gt;" style="rounded=1;whiteSpace=wrap;html=1;fillColor=#fff2cc;strokeColor=#d6b656;" parent="SGp8c-bpY-FQQqB5Yip6-16" vertex="1">
          <mxGeometry x="10" y="220" width="270" height="40" as="geometry" />
        </mxCell>
        <mxCell id="SGp8c-bpY-FQQqB5Yip6-22" value="protect abstract loadSwagger(): Promise&amp;lt;void&amp;gt;" style="rounded=1;whiteSpace=wrap;html=1;fillColor=#fff2cc;strokeColor=#d6b656;" parent="SGp8c-bpY-FQQqB5Yip6-16" vertex="1">
          <mxGeometry x="10" y="280" width="270" height="40" as="geometry" />
        </mxCell>
        <mxCell id="SGp8c-bpY-FQQqB5Yip6-27" style="edgeStyle=orthogonalEdgeStyle;rounded=1;orthogonalLoop=1;jettySize=auto;html=1;exitX=0;exitY=0.5;exitDx=0;exitDy=0;fillColor=#fff2cc;strokeColor=#d6b656;dashed=1;entryX=0.125;entryY=0.975;entryDx=0;entryDy=0;entryPerimeter=0;" parent="1" source="SGp8c-bpY-FQQqB5Yip6-17" target="SGp8c-bpY-FQQqB5Yip6-15" edge="1">
          <mxGeometry relative="1" as="geometry">
            <mxPoint x="699.33" y="340" as="targetPoint" />
            <Array as="points">
              <mxPoint x="699.33" y="410" />
              <mxPoint x="699.33" y="329" />
            </Array>
          </mxGeometry>
        </mxCell>
        <mxCell id="SGp8c-bpY-FQQqB5Yip6-28" style="edgeStyle=orthogonalEdgeStyle;rounded=1;orthogonalLoop=1;jettySize=auto;html=1;exitX=0;exitY=0.5;exitDx=0;exitDy=0;fillColor=#fff2cc;strokeColor=#d6b656;dashed=1;" parent="1" target="SGp8c-bpY-FQQqB5Yip6-15" edge="1">
          <mxGeometry relative="1" as="geometry">
            <mxPoint x="725.33" y="330" as="targetPoint" />
            <Array as="points">
              <mxPoint x="699.33" y="470" />
            </Array>
            <mxPoint x="749.33" y="470.0000000000001" as="sourcePoint" />
          </mxGeometry>
        </mxCell>
        <mxCell id="SGp8c-bpY-FQQqB5Yip6-29" style="edgeStyle=orthogonalEdgeStyle;rounded=1;orthogonalLoop=1;jettySize=auto;html=1;entryX=0.5;entryY=0;entryDx=0;entryDy=0;fillColor=#d5e8d4;strokeColor=#82b366;" parent="1" target="SGp8c-bpY-FQQqB5Yip6-33" edge="1">
          <mxGeometry relative="1" as="geometry">
            <mxPoint x="20" y="484" as="sourcePoint" />
            <Array as="points">
              <mxPoint x="100" y="483.97" />
              <mxPoint x="420" y="483.97" />
            </Array>
          </mxGeometry>
        </mxCell>
        <mxCell id="SGp8c-bpY-FQQqB5Yip6-30" value="inject&lt;br&gt;All framework adapters" style="edgeLabel;html=1;align=center;verticalAlign=middle;resizable=0;points=[];labelBackgroundColor=#CDA2BE;" parent="SGp8c-bpY-FQQqB5Yip6-29" vertex="1" connectable="0">
          <mxGeometry x="-0.1873" y="2" relative="1" as="geometry">
            <mxPoint x="-23" as="offset" />
          </mxGeometry>
        </mxCell>
        <mxCell id="SGp8c-bpY-FQQqB5Yip6-31" style="edgeStyle=orthogonalEdgeStyle;rounded=1;orthogonalLoop=1;jettySize=auto;html=1;exitX=0.5;exitY=1;exitDx=0;exitDy=0;fillColor=#dae8fc;strokeColor=#6c8ebf;" parent="1" source="SGp8c-bpY-FQQqB5Yip6-33" edge="1">
          <mxGeometry relative="1" as="geometry">
            <mxPoint x="20" y="584" as="targetPoint" />
            <Array as="points">
              <mxPoint x="420" y="583.97" />
              <mxPoint x="100" y="583.97" />
            </Array>
          </mxGeometry>
        </mxCell>
        <mxCell id="SGp8c-bpY-FQQqB5Yip6-32" value="bind&lt;br&gt;Symbol(&#39;FrameworkFactory&#39;)" style="edgeLabel;html=1;align=center;verticalAlign=middle;resizable=0;points=[];labelBackgroundColor=#CDA2BE;" parent="SGp8c-bpY-FQQqB5Yip6-31" vertex="1" connectable="0">
          <mxGeometry x="0.3368" y="4" relative="1" as="geometry">
            <mxPoint x="4" y="-4" as="offset" />
          </mxGeometry>
        </mxCell>
        <mxCell id="SGp8c-bpY-FQQqB5Yip6-33" value="framework.factory.ts" style="rounded=1;whiteSpace=wrap;html=1;fillColor=#d5e8d4;strokeColor=#82b366;" parent="1" vertex="1">
          <mxGeometry x="330" y="513.97" width="180" height="40" as="geometry" />
        </mxCell>
        <mxCell id="SGp8c-bpY-FQQqB5Yip6-34" style="edgeStyle=orthogonalEdgeStyle;rounded=1;orthogonalLoop=1;jettySize=auto;html=1;exitX=0;exitY=0.5;exitDx=0;exitDy=0;fillColor=#fff2cc;strokeColor=#d6b656;dashed=1;" parent="1" source="SGp8c-bpY-FQQqB5Yip6-18" edge="1">
          <mxGeometry relative="1" as="geometry">
            <mxPoint x="699.33" y="330" as="targetPoint" />
          </mxGeometry>
        </mxCell>
        <mxCell id="SGp8c-bpY-FQQqB5Yip6-35" style="edgeStyle=orthogonalEdgeStyle;rounded=1;orthogonalLoop=1;jettySize=auto;html=1;entryX=0.119;entryY=1.01;entryDx=0;entryDy=0;entryPerimeter=0;exitX=0;exitY=0.5;exitDx=0;exitDy=0;fillColor=#fff2cc;strokeColor=#d6b656;dashed=1;" parent="1" source="SGp8c-bpY-FQQqB5Yip6-21" target="SGp8c-bpY-FQQqB5Yip6-15" edge="1">
          <mxGeometry relative="1" as="geometry" />
        </mxCell>
        <mxCell id="SGp8c-bpY-FQQqB5Yip6-36" style="edgeStyle=orthogonalEdgeStyle;rounded=1;orthogonalLoop=1;jettySize=auto;html=1;entryX=0.121;entryY=1.006;entryDx=0;entryDy=0;entryPerimeter=0;exitX=0;exitY=0.5;exitDx=0;exitDy=0;fillColor=#fff2cc;strokeColor=#d6b656;dashed=1;" parent="1" source="SGp8c-bpY-FQQqB5Yip6-22" target="SGp8c-bpY-FQQqB5Yip6-15" edge="1">
          <mxGeometry relative="1" as="geometry" />
        </mxCell>
      </root>
    </mxGraphModel>
  </diagram>
</mxfile>
